<?xml version="1.0" encoding="utf-8"?>
<!-- Generator: Adobe Illustrator 16.0.0, SVG Export Plug-In . SVG Version: 6.00 Build 0)  -->
<!DOCTYPE svg PUBLIC "-//W3C//DTD SVG 1.1//EN" "http://www.w3.org/Graphics/SVG/1.1/DTD/svg11.dtd">
<svg version="1.1" id="Calque_1" xmlns="http://www.w3.org/2000/svg" xmlns:xlink="http://www.w3.org/1999/xlink" x="0px" y="0px"
	 width="800px" height="800px" viewBox="0 0 800 800" enable-background="new 0 0 800 800" xml:space="preserve">
<path fill="#1A1B22" d="M741.675,394c0-47.125-31.9-88.4-77.601-100.375L763.675,0h-493.5l99.9,294.675
	c-44.301,12.9-74.775,53.375-74.9,99.476c0,34.774,17.325,65.625,43.775,84.625c-10.525,14.975-22.676,28.8-36.075,41.399
	c-24.601,23.476-53.525,42.075-85.025,54.976c-27.875-18.775-39.825-51.976-29.024-81.5c113.274-35.301,88.274-202.226-30.2-202.726
	C101.325,291.025,54.85,337.4,54.85,394.7c0,28.274,11.425,54.175,30.075,72.774c-1.7,3.125-3.275,6.525-4.975,9.9
	c-15.476,32.025-33.075,68.1-39.825,108.6c-13.4,81.125,8.6,146.226,61.725,183.075c28.625,20.2,63,31.125,98.175,31
	c60.801,0,122.676-30.6,182.426-60.3c42.699-20.975,86.699-42.975,129.925-53.625c16.024-3.9,32.699-6.225,50.274-8.875
	c35.675-5.075,72.525-10.4,105.601-29.675c38.274-21.875,64.975-59.625,72.774-103c5.726-33.075,0-66.4-14.825-95.7
	c10.025-16.025,15.5-34.625,15.5-54.825L741.675,394z M696.5,394c0,32.175-26.2,58.325-58.325,58.325
	c-55.226-0.125-79.425-69.775-36.101-104.175l0.125-0.226c1.976-1.425,4.075-2.875,6-4.2c0,0,0.4,0,0.4-0.225
	c0.9-0.525,1.8-1.175,2.725-1.7c0.275,0,0.4-0.125,0.625-0.125c0.926-0.524,2.101-0.899,3.275-1.425s2.325-0.9,3.275-1.425
	c0.225,0,0.375-0.125,0.625-0.125c0.925-0.275,1.975-0.775,2.875-0.9c0.124,0,0.675-0.274,0.925-0.274
	C624.1,337.25,625,337,626.15,336.85h0.125l3.525-0.774c0.225,0,0.625,0,0.899-0.275c0.9,0,1.825-0.274,2.875-0.274h1.025
	c1.175,0,2.325-0.125,3.774-0.125h3.001c0.925,0,1.699,0,2.6,0.125h0.4c1.824,0.274,3.774,0.524,5.6,1.074
	c27.075,5.726,46.5,29.676,46.5,57.4H696.5z M334.775,46.375H699.1l-83.6,246.6c-3.525,0.675-6.9,1.825-10.426,3l-88-179.425
	l-88.3,178.275C425.4,293.75,421.6,293,417.85,292.35L334.775,46.375z M500.4,373.825c-4.3-21.375-15.225-40.9-31.274-55.601
	L517.05,221.5l48.425,98.8C551,334.625,540.6,353,536.449,373.825H500.4z M384.375,337.225c1.024-0.274,2.1-0.5,3.274-0.625h0.625
	c0.926-0.274,1.825-0.274,2.726-0.524h0.925c0.9,0,1.7-0.275,2.6-0.275h8.976c0.925,0,1.7,0.275,2.375,0.275
	c0.5,0,0.625,0,1.175,0.274c0.9,0.275,1.575,0.275,2.475,0.4c0.275,0,0.525,0,1.025,0.225l3.125,0.676h0.275
	c0.899,0.274,1.975,0.524,2.875,1.024c0.125,0,0.399,0.125,0.899,0.125c0.675,0.275,1.575,0.525,2.375,0.9
	c0.1,0,0.375,0.274,0.625,0.274c0.899,0.525,1.825,0.801,2.725,1.176h0.275c1.024,0.399,2.075,0.925,3,1.699h0.274
	c0.9,0.4,1.801,1.025,2.726,1.575c0.225,0,0.225,0.275,0.5,0.275c0.925,0.399,1.575,1.175,2.475,1.575l0.275,0.274
	c2.725,2.075,5.325,4.4,7.975,6.775l0.101,0.125c10.425,10.925,16.175,25.375,16.024,40.325c-2.475,75.274-114.199,75.274-116.675,0
	c-0.125-26.676,18.101-50,44-56.5L384.375,337.225z M156.375,335.525c32.175,0,58.325,26.3,58.325,58.475
	s-26.176,58.325-58.325,58.325c-32.125,0-58.325-26.175-58.325-58.325S124.25,335.525,156.375,335.525L156.375,335.525z
	 M695.175,536.475c-5.325,29.926-23.8,55.976-50.226,71.101c-25.274,14.575-56.399,19.274-88.925,23.8
	c-18.375,2.375-36.725,5.6-54.7,9.775C453.15,653.025,406.8,676.05,361.85,698.325C304.45,726.85,250.275,753.65,200.025,753.65
	c-25.774,0.125-50.899-7.801-71.875-22.9c-50.925-35.175-48.425-101.175-42.324-137.375c5.475-33.875,20.975-65.5,35.8-95.825
	c1.075-1.825,1.7-3.524,2.625-5.325c5.075,1.801,10.399,3.226,16,4.176c-8.875,49.074,16.125,99.875,64.825,124.875l8.725,4.524
	l9.5-3.375c40.5-14.475,78.125-37.774,111.2-69c18.375-17.075,34.5-36.325,48.175-57.3c5.375,0.9,10.7,1.175,16.025,1.175
	c47.124-0.125,88.274-31.899,100.274-77.6H537.9c11.825,45.7,53.101,77.6,100.275,77.6c19.274,0,37.1-5.325,52.325-14.325
	c5.999,17.325,7.925,35.426,4.675,53.525V536.475z"/>
</svg>
