<?xml version="1.0" encoding="utf-8"?>
<!-- Generator: Adobe Illustrator 16.0.0, SVG Export Plug-In . SVG Version: 6.00 Build 0)  -->
<!DOCTYPE svg PUBLIC "-//W3C//DTD SVG 1.1//EN" "http://www.w3.org/Graphics/SVG/1.1/DTD/svg11.dtd">
<svg version="1.1"
	 id="svg2" xmlns:dc="http://purl.org/dc/elements/1.1/" xmlns:cc="http://creativecommons.org/ns#" xmlns:rdf="http://www.w3.org/1999/02/22-rdf-syntax-ns#" xmlns:svg="http://www.w3.org/2000/svg"
	 xmlns="http://www.w3.org/2000/svg" xmlns:xlink="http://www.w3.org/1999/xlink" x="0px" y="0px" width="2283.08px"
	 height="2168px" viewBox="1606.92 0 2283.08 2168" enable-background="new 1606.92 0 2283.08 2168" xml:space="preserve">
<g id="g5">
	<path id="path14" fill="#1A1B22" d="M2889.39,6.348l-2.04-4.07c-1.01-1.01-2.03-2.04-4.061-2.04l-4.08,1.03
		c-2.029,2.03-3.05,3.05-3.05,5.08l-86.52,1566.347l13.239-2.035L2886.34,46.958l99.75,163.88h-1.021
		c75.32,221.88,106.87,458.02,94.66,708.41l6.11,9.16l98.729,175.06l6.101,6.11c151.659,133.336,321.629,222.906,509.939,268.707
		l45.8,74.309l6.11,2.031l1.02-2.031L2887.35,35.768l2.04-29.52"/>
	<path id="path18" fill="#1A1B22" d="M2858.86,559.028c106.87,218.84,145.54,549.63,117.051,992.392l416.289-50.895L2858.86,559.028
		z"/>
	<path id="path20" fill="#1A1B22" d="M3807.48,1520.881c42.74-5.086,70.22-14.246,82.44-27.476l-2178.16,265.655h-1.021
		c1.021,90.586,41.73,161.836,121.12,212.724c21.37,15.269,43.771,26.465,64.12,33.59c19.34-22.387,40.72-38.676,66.17-53.946h1.01
		c228.001-138.422,566.94-159.8,1014.78-65.136l5.09,1.011c48.86,10.181,97.71,22.399,143.521,36.646
		c13.22,2.035,24.42-2.035,33.58-10.181c16.29-12.215,36.649-21.375,64.13-27.476v-1.021
		c72.27-128.25,169.97-222.905,292.119-284.995C3600.86,1558.549,3698.57,1531.061,3807.48,1520.881"/>
	<path id="path22" fill="#1A1B22" d="M2761.15,1560.585l99.74-1528.787c-144.53,557.771-376.601,1078.9-695.181,1562.369
		L2761.15,1560.585"/>
	<path id="path24" fill="#1A1B22" d="M2200.32,329.008l-4.069-2.04l-4.07,1.021l-2.04,5.08l-82.44,1323.188l12.21-1.019
		l82.45-1322.169L2200.32,329.008"/>
	<path id="path26" fill="#1A1B22" d="M2084.289,1627.756L2084.289,1627.756l87.53-1290.607l-461.08,1330.308L2084.289,1627.756"/>
</g>
<g id="g13">
	<path id="path34" fill="none" stroke="#1A1B22" stroke-width="12" stroke-linecap="round" stroke-linejoin="round" d="
		M2102.61,2057.953c-115.02,54.961-198.479,64.121-251.41,30.539c-52.93-35.625-134.359-27.484-244.279,24.422"/>
	<path id="path36" fill="none" stroke="#1A1B22" stroke-width="12" stroke-linecap="round" stroke-linejoin="round" d="
		M2372.33,2066.093c-21.371-7.125-44.78-12.211-69.211-14.25c-49.869-4.065-109.93,15.271-180.159,57.005
		c-70.23,42.746-154.71,59.035-255.48,49.871"/>
	<path id="path38" fill="none" stroke="#1A1B22" stroke-width="12" stroke-linecap="round" stroke-linejoin="round" d="
		M3000.34,1962.273c-484.5-99.742-833.61-76.336-1047.351,71.25"/>
	<path id="path40" fill="none" stroke="#1A1B22" stroke-width="12" stroke-linecap="round" stroke-linejoin="round" d="
		M3305.69,2010.117c-21.38-8.146-44.79-13.235-69.22-14.254c-49.87-4.067-109.92,15.269-180.15,57.004
		c-70.229,41.727-154.71,58.012-255.479,49.871"/>
	<path id="path42" fill="none" stroke="#1A1B22" stroke-width="29" stroke-linecap="round" stroke-linejoin="round" d="
		M2655.289,341.218c-49.879-30.54-101.779-22.39-155.729,25.44c-46.82-47.83-95.67-55.98-146.57-25.44"/>
	<path id="path44" fill="none" stroke="#1A1B22" stroke-width="29" stroke-linecap="round" stroke-linejoin="round" d="
		M2542.31,170.218c-50.89-30.53-100.76-18.32-151.66,36.64c-49.88-54.96-100.76-67.17-151.659-36.64"/>
</g>
<g id="g33">
	<path id="path66" fill="#6C78AF" d="M38.211,2423.522h134.914c40.538,0,70.306,11.541,89.304,34.615
		c18.99,23.081,25.152,55.242,18.484,96.487c-2.734,16.921-7.611,32.45-14.637,46.594c-7.028,14.144-16.31,27.066-27.847,38.757
		c-13.718,14.068-29.073,24.148-46.077,30.23s-38.749,9.124-65.23,9.124H67.029l-14.951,92.515h-70.165L38.211,2423.522
		L38.211,2423.522z M99.463,2478.627L75.85,2624.73h42.676c28.287,0,49.252-5.774,62.9-17.338
		c13.639-11.565,22.634-30.808,26.988-57.736c4.197-25.968,1.757-44.294-7.299-54.993c-9.063-10.688-26.921-16.036-53.578-16.036
		H99.463"/>
	<path id="path68" fill="#6C78AF" d="M359.683,2331.007h69.635l-14.952,92.516h61.95c38.989,0,66.012,7.39,81.075,22.157
		c15.069,14.776,19.952,38.58,14.643,71.433l-26.22,162.218h-70.69l24.954-154.39c2.842-17.552,1.465-29.487-4.124-35.815
		c-5.589-6.319-17.284-9.486-35.069-9.486h-55.578l-32.274,199.691h-69.647L359.683,2331.007"/>
	<path id="path70" fill="#6C78AF" d="M647.878,2423.522h134.913c40.547,0,70.306,11.541,89.304,34.615
		c18.994,23.081,25.153,55.242,18.489,96.487c-2.733,16.921-7.615,32.45-14.633,46.594c-7.033,14.144-16.322,27.066-27.851,38.757
		c-13.723,14.068-29.077,24.148-46.081,30.23c-17.001,6.082-38.745,9.124-65.235,9.124h-60.085l-14.952,92.515h-70.16
		L647.878,2423.522L647.878,2423.522z M709.138,2478.627l-23.612,146.104H728.2c28.286,0,49.248-5.774,62.889-17.338
		c13.642-11.565,22.643-30.808,26.996-57.736c4.193-25.968,1.758-44.294-7.304-54.993c-9.063-10.688-26.921-16.036-53.568-16.036
		H709.138"/>
</g>
<g id="g65">
	<path id="path72" fill="#F89C0E" d="M1009.189,2256.986h134.947l59.281,323.869l163.973-323.869h134.434l-68.203,422.055h-90.096
		l60.563-328.744l-165.335,328.744h-97.63l-62.092-332.189l-44.47,332.189h-93.583L1009.189,2256.986"/>
	<path id="path74" fill="#F89C0E" d="M1663.775,2610.741h68.13l39.048-241.656h84.693l-48.748,301.634
		c-6.617,41.009-21.442,71.383-44.45,91.124c-23.009,19.731-54.93,29.604-95.751,29.604h-166.078l10.152-62.788h151.498
		c16.258,0,29.365-3.8,39.322-11.39c9.944-7.604,16.1-18.611,18.428-33.035l0.844-5.193h-74.965
		c-47.951,0-80.653-9.141-98.094-27.422c-17.452-18.279-22.717-48.765-15.83-91.452l30.892-191.082h83.737l-29.863,184.765
		c-3.775,23.373-2.643,38.697,3.434,45.976C1626.238,2607.104,1640.767,2610.741,1663.775,2610.741"/>
	<path id="path76" fill="#F89C0E" d="M2083.744,2256.986h97.521l118.188,422.055h-102.273l-23.907-100.46h-189.956l-55.187,100.46
		h-97.532L2083.744,2256.986L2083.744,2256.986z M2115.396,2340.792l-90.182,162.444h130.219L2115.396,2340.792"/>
	<path id="path78" fill="#F89C0E" d="M2618.743,2679.041h-162.696c-49.165,0-85.267-13.979-108.319-41.94
		c-23.041-27.957-30.506-66.933-22.432-116.913c3.316-20.492,9.229-39.31,17.752-56.447c8.521-17.142,19.771-32.796,33.759-46.971
		c16.629-17.041,35.31-29.25,56.03-36.624c20.721-7.375,47.045-11.061,78.96-11.061h72.662l18.113-112.099h84.386L2618.743,2679.041
		L2618.743,2679.041z M2545.106,2612.578l28.569-176.724h-51.223c-34.352,0-59.84,6.948-76.487,20.832
		c-16.622,13.893-27.572,37.026-32.802,69.397c-5.079,31.422-2.077,53.689,9.006,66.812c11.084,13.122,32.706,19.683,64.865,19.683
		H2545.106"/>
	<path id="path80" fill="#F89C0E" d="M2742.463,2369.085h325.233c47.154,0,79.701,8.907,97.626,26.699
		c17.913,17.803,23.651,46.703,17.19,86.702l-31.772,196.555h-85.329l30.043-185.926c3.69-22.794,2.559-37.83-3.384-45.115
		c-5.966-7.278-20.019-10.92-42.181-10.92h-47.51l-39.107,241.961h-86.604l39.107-241.961h-98.979l-39.107,241.961h-85.329
		L2742.463,2369.085"/>
	<path id="path82" fill="#F89C0E" d="M3371.092,2333.863h-88.821l12.423-76.877h88.821L3371.092,2333.863z M3315.299,2679.041
		h-88.821l50.09-309.956h88.821L3315.299,2679.041"/>
	<path id="path84" fill="#F89C0E" d="M3438.652,2369.085h159.352c48.16,0,81.135,8.764,98.912,26.27
		c17.777,17.516,23.393,46.56,16.836,87.132l-31.76,196.555h-84.705l30.152-186.5c3.742-23.182,2.451-38.219-3.874-45.11
		c-6.325-6.9-20.691-10.352-43.087-10.352h-68.116l-39.107,241.962h-84.692L3438.652,2369.085"/>
</g>
</svg>
