<?xml version="1.0" encoding="utf-8"?>
<!-- Generator: Adobe Illustrator 16.0.0, SVG Export Plug-In . SVG Version: 6.00 Build 0)  -->
<!DOCTYPE svg PUBLIC "-//W3C//DTD SVG 1.1//EN" "http://www.w3.org/Graphics/SVG/1.1/DTD/svg11.dtd">
<svg version="1.1" id="Calque_1" xmlns="http://www.w3.org/2000/svg" xmlns:xlink="http://www.w3.org/1999/xlink" x="0px" y="0px"
	 width="256px" height="234px" viewBox="0 0 256 234" enable-background="new 0 0 256 234" xml:space="preserve">
<title>vitest</title>
<g>
	<path fill="#1A1B22" d="M192.115,70.809l-61.201,88.488c-0.648,0.938-1.587,1.641-2.672,2.001s-2.259,0.357-3.342-0.005
		c-1.083-0.364-2.018-1.07-2.661-2.01c-0.643-0.941-0.96-2.066-0.903-3.203l2.449-48.854L84.243,98.84
		c-0.845-0.179-1.633-0.563-2.292-1.118c-0.66-0.554-1.172-1.263-1.491-2.062c-0.319-0.799-0.435-1.665-0.338-2.52
		s0.404-1.673,0.895-2.382l61.201-88.488c0.649-0.939,1.587-1.642,2.673-2.002c1.086-0.36,2.26-0.358,3.343,0.006
		c1.083,0.364,2.018,1.069,2.661,2.011c0.643,0.94,0.959,2.065,0.902,3.202l-2.449,48.855l39.541,8.385
		c0.846,0.179,1.633,0.563,2.293,1.118s1.172,1.263,1.49,2.062c0.32,0.799,0.436,1.665,0.339,2.52S192.605,70.1,192.115,70.809
		L192.115,70.809z"/>
	<path fill="#1A1B22" d="M128.024,233.537c-1.628,0.002-3.24-0.316-4.744-0.939s-2.87-1.538-4.019-2.689l-57.828-57.824
		c-2.313-2.325-3.61-5.473-3.606-8.754c0.004-3.28,1.31-6.427,3.629-8.745c2.32-2.32,5.465-3.626,8.745-3.631
		c3.281-0.003,6.429,1.292,8.755,3.605l49.067,49.062L234.917,96.733c2.331-2.292,5.472-3.572,8.741-3.559
		c3.27,0.014,6.4,1.318,8.711,3.629c2.312,2.312,3.617,5.443,3.631,8.712c0.012,3.269-1.268,6.411-3.561,8.741L136.785,229.908
		c-1.148,1.152-2.515,2.066-4.018,2.689C131.264,233.221,129.652,233.539,128.024,233.537z"/>
	<path fill="#1A1B22" fill-opacity="0.5" d="M127.975,233.537c1.628,0.002,3.24-0.316,4.744-0.939s2.869-1.538,4.02-2.689
		l57.827-57.824c2.313-2.325,3.61-5.473,3.605-8.754c-0.003-3.28-1.31-6.427-3.629-8.745c-2.32-2.32-5.466-3.626-8.745-3.631
		c-3.281-0.003-6.43,1.292-8.756,3.605l-49.066,49.062L21.082,96.733c-2.33-2.292-5.472-3.572-8.741-3.559
		c-3.269,0.014-6.4,1.318-8.712,3.629c-2.312,2.312-3.616,5.443-3.629,8.712s1.266,6.411,3.559,8.741l115.655,115.651
		c1.149,1.152,2.515,2.066,4.019,2.689S126.348,233.539,127.975,233.537z"/>
</g>
</svg>
